<svg xmlns="http://www.w3.org/2000/svg" viewBox="0 0 900 470" font-family="Arial, Helvetica, sans-serif" font-size="14">
  <rect x="0" y="0" width="900" height="470" fill="#f9f9f9" rx="8"/>
  <text x="450.0" y="28" text-anchor="middle" font-size="17" font-weight="bold" fill="#1a1a1a">Figure 13: Where the obstacle sensors look</text>
  <text x="450.0" y="46" text-anchor="middle" font-size="12" fill="#555555">Coverage varies a lot between models. Many small drones watch forward and down only.</text>
  <path d="M398,250 L309.1,123.0 A155,155 0 0,1 486.9,123.0 Z" fill="#cfe3f7" stroke="#4a90d9" stroke-width="1.5"/>
  <path d="M398,250 L486.9,377.0 A155,155 0 0,1 309.1,377.0 Z" fill="#cfe3f7" stroke="#4a90d9" stroke-width="1.5"/>
  <path d="M398,250 L486.9,123.0 A155,155 0 0,1 486.9,377.0 Z" fill="#fbe0dc" stroke="#e8b4ac" stroke-width="1.5"/>
  <path d="M398,250 L309.1,377.0 A155,155 0 0,1 309.1,123.0 Z" fill="#fbe0dc" stroke="#e8b4ac" stroke-width="1.5"/>
  <g transform="translate(398,250)">
    <g transform="scale(1.05)">
      <g>
        <g stroke="#333333" stroke-width="5" stroke-linecap="round">
          <line x1="-8.4" y1="-12.0" x2="-30" y2="-24"/>
          <line x1="8.4" y1="-12.0" x2="30" y2="-24"/>
          <line x1="-8.4" y1="12.0" x2="-30" y2="24"/>
          <line x1="8.4" y1="12.0" x2="30" y2="24"/>
        </g>
        <g fill="#e8edf2" stroke="#b6c2cc" stroke-width="1">
          <circle cx="-30" cy="-24" r="15"/>
          <circle cx="30" cy="-24" r="15"/>
          <circle cx="-30" cy="24" r="15"/>
          <circle cx="30" cy="24" r="15"/>
        </g>
        <g fill="#444444">
          <circle cx="-30" cy="-24" r="5"/>
          <circle cx="30" cy="-24" r="5"/>
          <circle cx="-30" cy="24" r="5"/>
          <circle cx="30" cy="24" r="5"/>
        </g>
        <rect x="-11" y="-20" width="22" height="40" rx="6" fill="#d0d7de" stroke="#333333" stroke-width="1.5"/>
        <polygon points="0,-37 -11,-21 11,-21" fill="#444444" stroke="#333333" stroke-width="1"/>
      </g>
    </g>
  </g>
  <text x="398" y="79" text-anchor="middle" font-size="13" font-weight="bold" fill="#4a90d9">sees ahead</text>
  <text x="398" y="431" text-anchor="middle" font-size="13" font-weight="bold" fill="#4a90d9">sees behind</text>
  <text x="229" y="255" text-anchor="end" font-size="13" font-weight="bold" fill="#e74c3c">blind</text>
  <text x="567" y="255" text-anchor="start" font-size="13" font-weight="bold" fill="#e74c3c">blind</text>
  <rect x="640" y="110" width="180" height="270" rx="10" fill="#ffffff" stroke="#dde3e9" stroke-width="1.5"/>
  <text x="730" y="140" text-anchor="middle" font-size="13" font-weight="bold" fill="#1a1a1a">Missed even in view</text>
  <circle cx="662" cy="170" r="4" fill="#e74c3c"/>
  <text x="674" y="174" font-size="12.5" fill="#555555">water</text>
  <circle cx="662" cy="202" r="4" fill="#e74c3c"/>
  <text x="674" y="206" font-size="12.5" fill="#555555">glass and mirrors</text>
  <circle cx="662" cy="234" r="4" fill="#e74c3c"/>
  <text x="674" y="238" font-size="12.5" fill="#555555">thin branches</text>
  <circle cx="662" cy="266" r="4" fill="#e74c3c"/>
  <text x="674" y="270" font-size="12.5" fill="#555555">power lines</text>
  <circle cx="662" cy="298" r="4" fill="#e74c3c"/>
  <text x="674" y="302" font-size="12.5" fill="#555555">plain white walls</text>
  <circle cx="662" cy="330" r="4" fill="#e74c3c"/>
  <text x="674" y="334" font-size="12.5" fill="#555555">anything in the dark</text>
</svg>
