<svg xmlns="http://www.w3.org/2000/svg" viewBox="0 0 900 560" font-family="Arial, Helvetica, sans-serif" font-size="14">
  <rect x="0" y="0" width="900" height="560" fill="#f9f9f9" rx="8"/>
  <text x="450.0" y="28" text-anchor="middle" font-size="17" font-weight="bold" fill="#1a1a1a">Figure 17: Where you calibrate the compass</text>
  <text x="450.0" y="46" text-anchor="middle" font-size="12" fill="#555555">The aircraft never knows its compass is wrong. It flies confidently on bad information.</text>
  <rect x="60" y="84" width="380" height="434" rx="12" fill="#ffffff" stroke="#dde3e9" stroke-width="1.5"/>
  <text x="250" y="116" text-anchor="middle" font-size="15" font-weight="bold" fill="#e74c3c">Calibrated over metal</text>
  <g>
    <circle cx="250" cy="202" r="56" fill="#ffffff" stroke="#333333" stroke-width="2"/>
    <line x1="250.0" y1="156.0" x2="250.0" y2="146.0" stroke="#b6c2cc" stroke-width="2"/>
    <line x1="275.0" y1="158.69872981077808" x2="278.0" y2="153.50257738807144" stroke="#b6c2cc" stroke-width="2"/>
    <line x1="293.30127018922195" y1="177.0" x2="298.4974226119286" y2="174.0" stroke="#b6c2cc" stroke-width="2"/>
    <line x1="296.0" y1="202.0" x2="306.0" y2="202.0" stroke="#b6c2cc" stroke-width="2"/>
    <line x1="293.30127018922195" y1="227.0" x2="298.4974226119286" y2="230.0" stroke="#b6c2cc" stroke-width="2"/>
    <line x1="275.0" y1="245.30127018922192" x2="278.0" y2="250.49742261192856" stroke="#b6c2cc" stroke-width="2"/>
    <line x1="250.0" y1="248.0" x2="250.0" y2="258.0" stroke="#b6c2cc" stroke-width="2"/>
    <line x1="225.0" y1="245.30127018922195" x2="222.0" y2="250.49742261192858" stroke="#b6c2cc" stroke-width="2"/>
    <line x1="206.69872981077805" y1="227.0" x2="201.50257738807142" y2="230.0" stroke="#b6c2cc" stroke-width="2"/>
    <line x1="204.0" y1="202.0" x2="194.0" y2="202.0" stroke="#b6c2cc" stroke-width="2"/>
    <line x1="206.69872981077808" y1="177.0" x2="201.50257738807144" y2="174.0" stroke="#b6c2cc" stroke-width="2"/>
    <line x1="224.99999999999997" y1="158.69872981077808" x2="221.99999999999997" y2="153.50257738807144" stroke="#b6c2cc" stroke-width="2"/>
    <text x="250" y="164" text-anchor="middle" font-size="12" font-weight="bold" fill="#555555">N</text>
    <polygon points="278.10348546707206,170.78791732994944 235.8712404130534,229.6473896151927 223.9809232054151,218.94129991345096" fill="#e74c3c" stroke="#333333" stroke-width="1"/>
    <circle cx="250" cy="202" r="4" fill="#333333"/>
  </g>
  <text x="250" y="280" text-anchor="middle" font-size="12.5" fill="#e74c3c">believes north is 40 degrees off</text>
  <line x1="100" y1="384" x2="400" y2="384" stroke="#9aa7b2" stroke-width="3" stroke-linecap="round"/>
  <rect x="100" y="384" width="300" height="30" fill="#d8d2c4"/>
  <g stroke="#9a8f78" stroke-width="2">
    <line x1="108" y1="388" x2="108" y2="410"/>
    <line x1="144" y1="388" x2="144" y2="410"/>
    <line x1="180" y1="388" x2="180" y2="410"/>
    <line x1="216" y1="388" x2="216" y2="410"/>
    <line x1="252" y1="388" x2="252" y2="410"/>
    <line x1="288" y1="388" x2="288" y2="410"/>
    <line x1="324" y1="388" x2="324" y2="410"/>
    <line x1="360" y1="388" x2="360" y2="410"/>
    <line x1="396" y1="388" x2="396" y2="410"/>
    <line x1="102" y1="393" x2="398" y2="393"/>
    <line x1="102" y1="404" x2="398" y2="404"/>
  </g>
  <text x="250" y="432" text-anchor="middle" font-size="11.5" fill="#555555">slab with rebar, vehicles, steel decking</text>
  <g transform="translate(346,366)">
    <g transform="scale(0.62)">
      <path d="M-30,4 l7,-13 h32 l9,13 z" fill="#7a8794" stroke="#333333" stroke-width="1.5"/>
      <rect x="-34" y="4" width="68" height="11" rx="4" fill="#8f9aa6" stroke="#333333" stroke-width="1.5"/>
      <circle cx="-18" cy="16" r="6" fill="#444444"/>
      <circle cx="18" cy="16" r="6" fill="#444444"/>
    </g>
  </g>
  <g transform="translate(180,368)">
    <g transform="scale(0.62)">
      <g>
        <rect x="-22" y="-8" width="44" height="18" rx="6" fill="#d0d7de" stroke="#333333" stroke-width="1.5"/>
        <line x1="-34" y1="-8" x2="-34" y2="-18" stroke="#333333" stroke-width="4" stroke-linecap="round"/>
        <line x1="-51" y1="-20" x2="-17" y2="-20" stroke="#444444" stroke-width="4" stroke-linecap="round"/>
        <line x1="-20.4" y1="-2" x2="-34" y2="-10" stroke="#333333" stroke-width="4" stroke-linecap="round"/>
        <line x1="34" y1="-8" x2="34" y2="-18" stroke="#333333" stroke-width="4" stroke-linecap="round"/>
        <line x1="17" y1="-20" x2="51" y2="-20" stroke="#444444" stroke-width="4" stroke-linecap="round"/>
        <line x1="20.4" y1="-2" x2="34" y2="-10" stroke="#333333" stroke-width="4" stroke-linecap="round"/>
        <line x1="-14" y1="10" x2="-14" y2="20" stroke="#444444" stroke-width="4" stroke-linecap="round"/>
        <line x1="14" y1="10" x2="14" y2="20" stroke="#444444" stroke-width="4" stroke-linecap="round"/>
        <rect x="-6" y="-4" width="10" height="9" rx="3" fill="#444444"/>
      </g>
    </g>
  </g>
  <text x="250" y="484" text-anchor="middle" font-size="13.5" font-weight="bold" fill="#e74c3c">flies off in the wrong direction</text>
  <rect x="460" y="84" width="380" height="434" rx="12" fill="#ffffff" stroke="#dde3e9" stroke-width="1.5"/>
  <text x="650" y="116" text-anchor="middle" font-size="15" font-weight="bold" fill="#1a1a1a">Calibrated on open ground</text>
  <g>
    <circle cx="650" cy="202" r="56" fill="#ffffff" stroke="#333333" stroke-width="2"/>
    <line x1="650.0" y1="156.0" x2="650.0" y2="146.0" stroke="#b6c2cc" stroke-width="2"/>
    <line x1="675.0" y1="158.69872981077808" x2="678.0" y2="153.50257738807144" stroke="#b6c2cc" stroke-width="2"/>
    <line x1="693.3012701892219" y1="177.0" x2="698.4974226119285" y2="174.0" stroke="#b6c2cc" stroke-width="2"/>
    <line x1="696.0" y1="202.0" x2="706.0" y2="202.0" stroke="#b6c2cc" stroke-width="2"/>
    <line x1="693.3012701892219" y1="227.0" x2="698.4974226119285" y2="230.0" stroke="#b6c2cc" stroke-width="2"/>
    <line x1="675.0" y1="245.30127018922192" x2="678.0" y2="250.49742261192856" stroke="#b6c2cc" stroke-width="2"/>
    <line x1="650.0" y1="248.0" x2="650.0" y2="258.0" stroke="#b6c2cc" stroke-width="2"/>
    <line x1="625.0" y1="245.30127018922195" x2="622.0" y2="250.49742261192858" stroke="#b6c2cc" stroke-width="2"/>
    <line x1="606.6987298107781" y1="227.0" x2="601.5025773880715" y2="230.0" stroke="#b6c2cc" stroke-width="2"/>
    <line x1="604.0" y1="202.0" x2="594.0" y2="202.0" stroke="#b6c2cc" stroke-width="2"/>
    <line x1="606.6987298107781" y1="177.0" x2="601.5025773880715" y2="174.0" stroke="#b6c2cc" stroke-width="2"/>
    <line x1="625.0" y1="158.69872981077808" x2="622.0" y2="153.50257738807144" stroke="#b6c2cc" stroke-width="2"/>
    <text x="650" y="164" text-anchor="middle" font-size="12" font-weight="bold" fill="#555555">N</text>
    <polygon points="650.0,160.0 658.0,232.0 642.0,232.0" fill="#4a90d9" stroke="#333333" stroke-width="1"/>
    <circle cx="650" cy="202" r="4" fill="#333333"/>
  </g>
  <text x="650" y="280" text-anchor="middle" font-size="12.5" fill="#555555">believes north correctly</text>
  <line x1="500" y1="384" x2="800" y2="384" stroke="#9aa7b2" stroke-width="3" stroke-linecap="round"/>
  <rect x="500" y="384" width="300" height="30" fill="#e4ead9"/>
  <g stroke="#8aa06e" stroke-width="2" stroke-linecap="round">
    <line x1="510" y1="383" x2="506" y2="375"/>
    <line x1="510" y1="383" x2="514" y2="375"/>
    <line x1="534" y1="383" x2="530" y2="375"/>
    <line x1="534" y1="383" x2="538" y2="375"/>
    <line x1="558" y1="383" x2="554" y2="375"/>
    <line x1="558" y1="383" x2="562" y2="375"/>
    <line x1="582" y1="383" x2="578" y2="375"/>
    <line x1="582" y1="383" x2="586" y2="375"/>
    <line x1="606" y1="383" x2="602" y2="375"/>
    <line x1="606" y1="383" x2="610" y2="375"/>
    <line x1="630" y1="383" x2="626" y2="375"/>
    <line x1="630" y1="383" x2="634" y2="375"/>
    <line x1="654" y1="383" x2="650" y2="375"/>
    <line x1="654" y1="383" x2="658" y2="375"/>
    <line x1="678" y1="383" x2="674" y2="375"/>
    <line x1="678" y1="383" x2="682" y2="375"/>
    <line x1="702" y1="383" x2="698" y2="375"/>
    <line x1="702" y1="383" x2="706" y2="375"/>
    <line x1="726" y1="383" x2="722" y2="375"/>
    <line x1="726" y1="383" x2="730" y2="375"/>
    <line x1="750" y1="383" x2="746" y2="375"/>
    <line x1="750" y1="383" x2="754" y2="375"/>
    <line x1="774" y1="383" x2="770" y2="375"/>
    <line x1="774" y1="383" x2="778" y2="375"/>
    <line x1="798" y1="383" x2="794" y2="375"/>
    <line x1="798" y1="383" x2="802" y2="375"/>
  </g>
  <text x="650" y="432" text-anchor="middle" font-size="11.5" fill="#555555">open ground, clear of metal</text>
  <g transform="translate(580,368)">
    <g transform="scale(0.62)">
      <g>
        <rect x="-22" y="-8" width="44" height="18" rx="6" fill="#d0d7de" stroke="#333333" stroke-width="1.5"/>
        <line x1="-34" y1="-8" x2="-34" y2="-18" stroke="#333333" stroke-width="4" stroke-linecap="round"/>
        <line x1="-51" y1="-20" x2="-17" y2="-20" stroke="#444444" stroke-width="4" stroke-linecap="round"/>
        <line x1="-20.4" y1="-2" x2="-34" y2="-10" stroke="#333333" stroke-width="4" stroke-linecap="round"/>
        <line x1="34" y1="-8" x2="34" y2="-18" stroke="#333333" stroke-width="4" stroke-linecap="round"/>
        <line x1="17" y1="-20" x2="51" y2="-20" stroke="#444444" stroke-width="4" stroke-linecap="round"/>
        <line x1="20.4" y1="-2" x2="34" y2="-10" stroke="#333333" stroke-width="4" stroke-linecap="round"/>
        <line x1="-14" y1="10" x2="-14" y2="20" stroke="#444444" stroke-width="4" stroke-linecap="round"/>
        <line x1="14" y1="10" x2="14" y2="20" stroke="#444444" stroke-width="4" stroke-linecap="round"/>
        <rect x="-6" y="-4" width="10" height="9" rx="3" fill="#444444"/>
      </g>
    </g>
  </g>
  <text x="650" y="484" text-anchor="middle" font-size="13.5" font-weight="bold" fill="#2f8f4e">goes where you send it</text>
  <text x="450" y="540" text-anchor="middle" font-size="13" font-style="italic" fill="#555555">Return to Home uses the same compass, so a bad calibration sends the aircraft away rather than back.</text>
</svg>
